<svg width="125" height="118" viewBox="0 0 125 118" fill="none" xmlns="http://www.w3.org/2000/svg">
    <path d="M60.559 61.1223L125 0V27C125 77.2579 84.2579 118 34 118H0L60.559 61.1223Z" fill="#956362" />
    <rect width="5" height="34" rx="2.5" transform="matrix(-0.707107 0.707107 0.707107 0.707107 23.5356 70.9116)"
        fill="#192525" />
    <rect width="5" height="34" rx="2.5" transform="matrix(-0.707107 0.707107 0.707107 0.707107 29.8994 64.5479)"
        fill="#192525" />
    <rect width="5" height="34" rx="2.5" transform="matrix(-0.707107 0.707107 0.707107 0.707107 36.2637 58.1836)"
        fill="#192525" />
    <rect width="5" height="34" rx="2.5" transform="matrix(-0.707107 0.707107 0.707107 0.707107 42.6274 51.8198)"
        fill="#192525" />
    <rect width="5" height="34" rx="2.5" transform="matrix(-0.707107 0.707107 0.707107 0.707107 48.9912 45.4561)"
        fill="#192525" />
    <rect width="5" height="34" rx="2.5" transform="matrix(-0.707107 0.707107 0.707107 0.707107 55.3555 39.0918)"
        fill="#192525" />
    <rect width="5" height="34" rx="2.5" transform="matrix(-0.707107 0.707107 0.707107 0.707107 61.7192 32.728)"
        fill="#192525" />
    <rect width="5" height="34" rx="2.5" transform="matrix(-0.707107 0.707107 0.707107 0.707107 68.0835 26.3638)"
        fill="#192525" />
    <rect width="5" height="34" rx="2.5" transform="matrix(-0.707107 0.707107 0.707107 0.707107 74.4473 20)"
        fill="#192525" />
</svg>