<svg width="172" height="191" viewBox="0 0 172 191" fill="none" xmlns="http://www.w3.org/2000/svg">
<path d="M20.8889 130.4V130.363L20.8861 130.326L12.2906 15.0376C12.1686 13.4013 13.3839 11.9705 15.0184 11.8262L90.1863 5.18859L90.1991 5.18755L142.011 1.27861C143.586 1.15982 144.983 2.2819 145.207 3.84499L165.468 145.385C165.696 146.973 164.633 148.459 163.057 148.758L93.405 161.948C93.221 161.982 93.0341 162 92.8468 162H23.8889C22.232 162 20.8889 160.657 20.8889 159V130.4Z" fill="#F4C127" stroke="#7E2625" stroke-width="2"/>
<path d="M130 155.974L135.702 184L143 182.421L135.702 154L130 155.974Z" fill="#FDEECD" stroke="#7E2625"/>
<path d="M83.0369 24.4986L136.535 20.5358L139.001 57.5333L139.002 57.5424L139.003 57.5514L141.952 86.0625L84.4517 93.0022L50.5093 95.498L28.5 93.0525V27.4735L83.0272 24.4993L83.0272 24.4994L83.0369 24.4986Z" fill="#956362" stroke="#7E2625"/>
<path d="M108.678 122.987L134.471 93.7915L142.606 101.238L117.963 132.736L108.678 122.987Z" fill="#EF9935" stroke="#7E2625"/>
<path d="M79.8984 129.701C79.8984 134.579 76.6244 139.073 71.9905 142.375C67.3648 145.672 61.4898 147.701 56.5 147.701C46.5589 147.701 38.5 139.642 38.5 129.701C38.5 124.717 40.5246 119.325 43.8103 115.18C47.0972 111.034 51.5913 108.201 56.5 108.201C61.4404 108.201 67.3008 111.065 71.9464 115.241C76.5966 119.422 79.8984 124.797 79.8984 129.701Z" fill="#EF9935" stroke="#7E2625"/>
<path d="M123.5 120.975C123.5 122.163 122.805 123.291 121.768 124.142C120.73 124.994 119.43 125.5 118.363 125.5C116.294 125.5 114.5 123.543 114.5 120.975C114.5 119.695 114.954 118.299 115.69 117.23C116.432 116.153 117.39 115.5 118.363 115.5C119.374 115.5 120.662 116.193 121.726 117.294C122.784 118.39 123.5 119.766 123.5 120.975Z" fill="#E94635" stroke="#7E2625"/>
<path d="M136.5 104.975C136.5 106.163 135.805 107.291 134.768 108.142C133.73 108.994 132.43 109.5 131.363 109.5C129.294 109.5 127.5 107.543 127.5 104.975C127.5 103.695 127.954 102.299 128.69 101.23C129.432 100.153 130.39 99.4999 131.363 99.4999C132.374 99.4999 133.662 100.193 134.726 101.294C135.784 102.39 136.5 103.766 136.5 104.975Z" fill="#E94635" stroke="#7E2625"/>
<path d="M8.03125 125.857L19 104.714L18.1562 97L15.0625 101L9.15625 113.857L1 129.571L3.53125 133L8.03125 125.857Z" fill="#FDEECD" stroke="#7E2625"/>
<path d="M60.902 190L65 163H58.9608L54 188.962L60.902 190Z" fill="#FDEECD" stroke="#7E2625"/>
<path d="M83.4523 76.5023L83.4325 76.5042L83.4128 76.5077L36.0307 84.8982L38.4766 35.9799L130 32.0221V72.0456L83.4523 76.5023Z" fill="#FDEECD" stroke="#7E2625"/>
<path d="M162.612 85.069L155.371 70L155 70.6552L156.3 84.4138L168.553 108C169.482 107.017 171.264 104.986 170.967 104.724C170.67 104.462 165.273 91.5115 162.612 85.069Z" fill="#FDEECD" stroke="#7E2625"/>
<path d="M70.9668 126.933C71.0011 128.039 71.0088 129.152 70.99 130.272C70.9876 130.416 70.9886 130.553 70.9895 130.685C70.9968 131.681 71.0015 132.331 69.514 132.329C67.3762 132.328 65.2377 132.325 63.0983 132.32L70.9668 126.933ZM70.9668 126.933L70.4671 126.949C70.4693 127.022 70.4715 127.095 70.4735 127.168C70.5436 127.251 70.6307 127.322 70.7364 127.377L70.9668 126.933ZM70.3794 126.787L70.3157 126.86C70.3086 126.854 70.3016 126.848 70.2947 126.843C70.2905 126.83 70.2866 126.817 70.2829 126.804L70.3831 126.775M70.3794 126.787L70.7637 126.667L70.3912 126.773M70.3794 126.787L70.3707 126.789M70.3794 126.787L70.3912 126.773M70.3912 126.773L70.6428 126.482L70.3831 126.775M70.3912 126.773L70.3831 126.775M70.3831 126.775L70.3707 126.789M70.3707 126.789L70.2864 126.816C70.2888 126.824 70.2929 126.832 70.2985 126.841C70.3041 126.85 70.3092 126.855 70.3113 126.857L70.3707 126.789ZM55.6339 119.95C55.6342 119.948 55.6347 119.945 55.6358 119.941C55.6852 119.911 55.7276 119.875 55.763 119.837L55.7681 119.831L55.7731 119.826C55.9378 119.638 56.2192 119.5 56.7209 119.5C58.2635 119.502 59.8061 119.504 61.3487 119.507H61.3497C61.8798 119.507 62.1301 119.659 62.2583 119.843L62.2586 119.844C62.3013 119.905 62.354 119.955 62.4124 119.994C62.4722 121.644 62.4837 123.303 62.4467 124.97C62.2853 125.325 62.2681 125.732 62.3373 126.15C62.3592 126.287 62.4274 126.443 62.5776 126.557C62.7193 126.663 62.8746 126.686 62.9851 126.686L62.9861 126.686C65.3042 126.682 67.6284 126.685 69.9585 126.695L55.6339 119.95ZM55.6339 119.95C55.5976 121.073 55.5953 122.743 55.6277 124.967C55.8015 125.357 55.814 125.78 55.6965 126.209L55.6962 126.21C55.6611 126.337 55.5848 126.473 55.4457 126.57C55.3119 126.664 55.1677 126.688 55.0548 126.688H55.0538C52.9049 126.684 50.7568 126.685 48.6097 126.691L48.6083 126.691C48.3204 126.691 48.15 126.739 48.0157 126.808C47.8989 126.868 47.7862 126.956 47.6372 127.096C47.5171 128.092 47.4756 129.13 47.5137 130.211L47.5137 130.212C47.526 130.57 47.5766 131.01 47.7275 131.345C47.8005 131.508 47.8868 131.622 47.9812 131.695C48.0686 131.762 48.1862 131.812 48.366 131.813H48.366C50.5716 131.822 52.7626 131.827 54.9391 131.827L55.6339 119.95ZM62.9645 136.716L62.4645 136.719C62.4645 136.719 62.4645 136.719 62.4645 136.719C62.4649 136.787 62.4657 136.854 62.4664 136.919C62.4713 137.348 62.4756 137.73 62.3724 138.037C62.3196 138.194 62.2481 138.294 62.1573 138.36C62.0664 138.426 61.9074 138.493 61.6156 138.494L61.6151 138.494C59.7254 138.501 57.8375 138.502 55.9513 138.496L55.9497 138.996L62.9645 136.716ZM55.0528 132.368L55.3813 131.991C55.3813 131.991 55.3813 131.991 55.3813 131.991L55.0528 132.368ZM62.962 132.443L62.462 132.44C62.462 132.441 62.462 132.442 62.462 132.443H62.962Z" fill="#956362" stroke="#7E2625"/>
</svg>
